<svg width="686" height="435" viewBox="0 0 686 435" fill="none" xmlns="http://www.w3.org/2000/svg">
<g clip-path="url(#clip0_2403_2923)">
<path fill-rule="evenodd" clip-rule="evenodd" d="M275.558 20.8038H0.888184V315.177L27.3944 352.01L55.6512 391.277L89.798 391.275V268.012H223.008V180.148H89.798V109.742H311.917V71.3304L275.558 20.8038ZM142.752 227.582V277.99C142.752 290.661 144.79 302.12 148.865 312.367C153.051 322.504 158.723 331.153 165.883 338.315C173.152 345.366 181.579 350.82 191.161 354.677C200.744 358.534 210.988 360.462 221.893 360.462C226.849 360.462 231.696 359.801 236.432 358.478C241.279 357.266 245.96 355.613 250.476 353.52C254.993 351.316 259.288 348.783 263.363 345.918C267.549 342.943 271.459 339.802 275.094 336.497L289.964 357.156H298.39H300.869H343.496V256.009C343.496 251.381 344.377 247.028 346.139 242.952C347.901 238.765 350.325 235.129 353.409 232.044C356.493 228.959 360.128 226.535 364.314 224.772C368.5 223.01 372.961 222.128 377.697 222.128C382.323 222.128 386.674 223.01 390.749 224.772C394.824 226.535 398.405 228.959 401.489 232.044C404.572 235.129 406.996 238.765 408.758 242.952C410.52 247.028 411.402 251.381 411.402 256.009V357.156H456.507V318.858C459.957 324.361 463.923 329.414 468.403 334.018C476.664 342.282 486.247 348.783 497.152 353.52C508.166 358.148 519.897 360.462 532.344 360.462C538.071 360.462 543.689 359.745 549.197 358.313C554.814 356.881 560.267 354.952 565.554 352.529C570.841 349.994 575.853 347.075 580.589 343.769C585.436 340.354 590.006 336.718 594.302 332.861L611.816 357.156H622.72V109.742H577.284V192.378C574.862 188.852 571.888 185.877 568.362 183.454C564.837 181.03 561.037 179.101 556.962 177.669C552.997 176.126 548.866 175.025 544.57 174.364C540.384 173.703 536.309 173.372 532.344 173.372C519.897 173.372 508.166 175.741 497.152 180.479C486.247 185.216 476.664 191.773 468.403 200.146C461.127 207.622 455.211 216.327 450.655 226.262C450.516 225.93 450.373 225.598 450.229 225.268C446.154 215.572 440.536 207.143 433.376 199.981C426.216 192.709 417.846 187.034 408.263 182.958C398.68 178.77 388.492 176.677 377.697 176.677C367.674 176.677 358.035 178.495 348.783 182.131C339.64 185.658 331.435 190.726 324.165 197.337L309.295 180.148H300.869H298.39H255.763V277.99C255.763 282.728 254.882 287.355 253.12 291.873C251.358 296.28 248.934 300.247 245.85 303.773C242.766 307.299 239.131 310.163 234.945 312.367C230.87 314.46 226.519 315.507 221.893 315.507C217.157 315.507 212.696 314.681 208.51 313.028C204.435 311.375 200.854 308.952 197.77 305.756C194.687 302.56 192.208 298.649 190.335 294.022C188.573 289.284 187.692 283.94 187.692 277.99V227.582H142.752ZM573.649 249.233C576.072 254.962 577.284 260.911 577.284 267.082C577.284 273.253 576.072 279.257 573.649 285.097C571.336 290.826 568.142 295.949 564.067 300.467C559.992 304.874 555.2 308.456 549.692 311.21C544.296 313.854 538.513 315.177 532.344 315.177C526.175 315.177 520.338 313.91 514.831 311.375C509.434 308.841 504.697 305.37 500.622 300.963C496.656 296.556 493.517 291.433 491.204 285.593C488.891 279.753 487.734 273.583 487.734 267.082C487.734 259.589 488.891 252.869 491.204 246.919C493.517 240.969 496.656 235.955 500.622 231.879C504.697 227.691 509.434 224.497 514.831 222.293C520.338 220.089 526.175 218.987 532.344 218.987C538.513 218.987 544.296 220.365 549.692 223.119C555.2 225.764 559.992 229.344 564.067 233.862C568.142 238.269 571.336 243.392 573.649 249.233ZM638.416 178.495V356.991H685.835V178.495H638.416ZM662.673 109.742H638.416V157.34H686V142.155L662.673 109.742Z" fill="#171C1F"/>
</g>
<defs>
<clipPath id="clip0_2403_2923">
<rect width="686" height="435" fill="white"/>
</clipPath>
</defs>
</svg>
