<svg width="272" height="181" viewBox="0 0 272 181" fill="none" xmlns="http://www.w3.org/2000/svg">
<g filter="url(#filter0_d_57920_30176)">
<path fill-rule="evenodd" clip-rule="evenodd" d="M109.03 8H8V116.858L17.7496 130.479L28.1431 145L40.7031 145V99.4169H89.7009V66.9252H40.7031V40.889H122.404V26.6846L109.03 8ZM60.1806 84.466V103.107C60.1806 107.792 60.9303 112.03 62.4292 115.819C63.9689 119.568 66.0551 122.766 68.6888 125.415C71.3627 128.022 74.4621 130.039 77.9869 131.466C81.5117 132.892 85.2796 133.605 89.2906 133.605C91.1137 133.605 92.8965 133.36 94.6385 132.871C96.4213 132.423 98.1429 131.812 99.8042 131.038C101.465 130.223 103.046 129.286 104.544 128.226C106.084 127.126 107.522 125.965 108.859 124.743L114.329 132.382H117.428H118.34H134.019V94.9783C134.019 93.267 134.343 91.6574 134.991 90.15C135.639 88.6015 136.531 87.2569 137.665 86.1162C138.8 84.9755 140.137 84.0788 141.676 83.427C143.216 82.7752 144.857 82.4491 146.599 82.4491C148.3 82.4491 149.901 82.7752 151.4 83.427C152.899 84.0788 154.216 84.9755 155.35 86.1162C156.484 87.2569 157.376 88.6015 158.024 90.15C158.672 91.6574 158.996 93.267 158.996 94.9783V132.382H175.587V118.22C176.856 120.255 178.315 122.123 179.963 123.826C183.001 126.882 186.526 129.286 190.537 131.038C194.589 132.749 198.903 133.605 203.482 133.605C205.588 133.605 207.655 133.34 209.681 132.81C211.747 132.281 213.752 131.567 215.697 130.671C217.642 129.734 219.485 128.654 221.227 127.432C223.01 126.169 224.691 124.824 226.271 123.398L232.713 132.382H236.724V40.889H220.012V71.4479C219.121 70.1439 218.027 69.0438 216.73 68.1476C215.433 67.2513 214.036 66.538 212.537 66.0084C211.078 65.4378 209.559 65.0305 207.979 64.7861C206.439 64.5416 204.94 64.4194 203.482 64.4194C198.903 64.4194 194.589 65.2956 190.537 67.0474C186.526 68.7993 183.001 71.224 179.963 74.3205C177.286 77.0849 175.11 80.3041 173.434 83.978C173.383 83.8553 173.331 83.7326 173.278 83.6104C171.779 80.0249 169.713 76.9079 167.079 74.2593C164.446 71.5702 161.367 69.4716 157.842 67.9642C154.317 66.4157 150.569 65.6417 146.599 65.6417C142.912 65.6417 139.367 66.314 135.964 67.6586C132.601 68.9626 129.583 70.8367 126.909 73.2814L121.439 66.9252H118.34H117.428H101.749V103.107C101.749 104.859 101.425 106.57 100.777 108.241C100.128 109.87 99.2368 111.337 98.1026 112.641C96.9683 113.945 95.6313 115.004 94.0916 115.819C92.5927 116.593 90.9922 116.981 89.2906 116.981C87.5486 116.981 85.9077 116.675 84.368 116.064C82.8691 115.453 81.5521 114.556 80.4178 113.375C79.2836 112.193 78.372 110.747 77.6831 109.035C77.035 107.283 76.7107 105.307 76.7107 103.107V84.466H60.1806ZM218.675 92.4724C219.566 94.591 220.012 96.7913 220.012 99.0732C220.012 101.355 219.566 103.575 218.675 105.735C217.824 107.854 216.649 109.748 215.15 111.419C213.651 113.049 211.889 114.373 209.863 115.392C207.878 116.369 205.751 116.858 203.482 116.858C201.213 116.858 199.066 116.39 197.04 115.453C195.055 114.515 193.312 113.232 191.813 111.602C190.355 109.973 189.2 108.078 188.349 105.918C187.499 103.759 187.073 101.477 187.073 99.0732C187.073 96.3023 187.499 93.817 188.349 91.6168C189.2 89.4166 190.355 87.5625 191.813 86.0551C193.312 84.5066 195.055 83.3253 197.04 82.5102C199.066 81.6952 201.213 81.2879 203.482 81.2879C205.751 81.2879 207.878 81.7974 209.863 82.8158C211.889 83.7937 213.651 85.1178 215.15 86.7885C216.649 88.4181 217.824 90.3128 218.675 92.4724ZM242.498 66.314V132.321H259.939V66.314H242.498ZM251.42 40.889H242.498V58.4909H260V52.8754L251.42 40.889Z" fill="url(#paint0_linear_57920_30176)"/>
</g>
<path d="M50.334 164.047L52.918 169.044L55.5088 164.047H57.0059L53.5742 170.281V174H52.2549V170.281L48.8232 164.047H50.334ZM57.5566 170.384V170.227C57.5566 169.693 57.6341 169.199 57.7891 168.743C57.944 168.283 58.1673 167.884 58.459 167.547C58.7507 167.205 59.1038 166.941 59.5186 166.754C59.9333 166.562 60.3981 166.467 60.9131 166.467C61.4326 166.467 61.8997 166.562 62.3145 166.754C62.7337 166.941 63.0892 167.205 63.3809 167.547C63.6771 167.884 63.9027 168.283 64.0576 168.743C64.2126 169.199 64.29 169.693 64.29 170.227V170.384C64.29 170.917 64.2126 171.411 64.0576 171.867C63.9027 172.323 63.6771 172.722 63.3809 173.063C63.0892 173.401 62.736 173.665 62.3213 173.856C61.9111 174.043 61.4463 174.137 60.9268 174.137C60.4072 174.137 59.9401 174.043 59.5254 173.856C59.1107 173.665 58.7552 173.401 58.459 173.063C58.1673 172.722 57.944 172.323 57.7891 171.867C57.6341 171.411 57.5566 170.917 57.5566 170.384ZM58.8213 170.227V170.384C58.8213 170.753 58.8646 171.102 58.9512 171.43C59.0378 171.753 59.1676 172.04 59.3408 172.291C59.5186 172.542 59.7396 172.74 60.0039 172.886C60.2682 173.027 60.5758 173.098 60.9268 173.098C61.2731 173.098 61.5762 173.027 61.8359 172.886C62.1003 172.74 62.319 172.542 62.4922 172.291C62.6654 172.04 62.7952 171.753 62.8818 171.43C62.973 171.102 63.0186 170.753 63.0186 170.384V170.227C63.0186 169.862 62.973 169.518 62.8818 169.194C62.7952 168.866 62.6631 168.577 62.4854 168.326C62.3122 168.071 62.0934 167.87 61.8291 167.725C61.5693 167.579 61.264 167.506 60.9131 167.506C60.5667 167.506 60.2614 167.579 59.9971 167.725C59.7373 167.87 59.5186 168.071 59.3408 168.326C59.1676 168.577 59.0378 168.866 58.9512 169.194C58.8646 169.518 58.8213 169.862 58.8213 170.227ZM70.6514 172.291V166.604H71.9229V174H70.7129L70.6514 172.291ZM70.8906 170.732L71.417 170.719C71.417 171.211 71.3646 171.667 71.2598 172.086C71.1595 172.501 70.9954 172.861 70.7676 173.166C70.5397 173.471 70.2412 173.711 69.8721 173.884C69.5029 174.052 69.054 174.137 68.5254 174.137C68.1654 174.137 67.835 174.084 67.5342 173.979C67.238 173.875 66.9827 173.713 66.7686 173.494C66.5544 173.275 66.388 172.991 66.2695 172.64C66.1556 172.289 66.0986 171.867 66.0986 171.375V166.604H67.3633V171.389C67.3633 171.721 67.3997 171.997 67.4727 172.216C67.5501 172.43 67.6527 172.601 67.7803 172.729C67.9124 172.852 68.0583 172.938 68.2178 172.988C68.3818 173.038 68.5505 173.063 68.7236 173.063C69.2614 173.063 69.6875 172.961 70.002 172.756C70.3164 172.546 70.542 172.266 70.6787 171.915C70.82 171.56 70.8906 171.165 70.8906 170.732ZM75.3652 167.766V174H74.1006V166.604H75.3311L75.3652 167.766ZM77.6758 166.562L77.6689 167.738C77.5641 167.715 77.4639 167.702 77.3682 167.697C77.277 167.688 77.1722 167.684 77.0537 167.684C76.762 167.684 76.5046 167.729 76.2812 167.82C76.0579 167.911 75.8688 168.039 75.7139 168.203C75.5589 168.367 75.4359 168.563 75.3447 168.791C75.2581 169.014 75.2012 169.26 75.1738 169.529L74.8184 169.734C74.8184 169.288 74.8617 168.868 74.9482 168.477C75.0394 168.085 75.1784 167.738 75.3652 167.438C75.5521 167.132 75.7891 166.895 76.0762 166.727C76.3678 166.553 76.7142 166.467 77.1152 166.467C77.2064 166.467 77.3112 166.478 77.4297 166.501C77.5482 166.519 77.6302 166.54 77.6758 166.562ZM85.8867 174.137C85.3717 174.137 84.9046 174.05 84.4854 173.877C84.0706 173.699 83.7129 173.451 83.4121 173.132C83.1159 172.813 82.888 172.435 82.7285 171.997C82.569 171.56 82.4893 171.081 82.4893 170.562V170.274C82.4893 169.673 82.5781 169.137 82.7559 168.668C82.9336 168.194 83.1751 167.793 83.4805 167.465C83.7858 167.137 84.1322 166.888 84.5195 166.72C84.9069 166.551 85.3079 166.467 85.7227 166.467C86.2513 166.467 86.707 166.558 87.0898 166.74C87.4772 166.923 87.7939 167.178 88.04 167.506C88.2861 167.829 88.4684 168.212 88.5869 168.654C88.7054 169.092 88.7646 169.57 88.7646 170.09V170.657H83.2412V169.625H87.5V169.529C87.4818 169.201 87.4134 168.882 87.2949 168.572C87.181 168.262 86.9987 168.007 86.748 167.807C86.4974 167.606 86.1556 167.506 85.7227 167.506C85.4355 167.506 85.1712 167.567 84.9297 167.69C84.6882 167.809 84.4808 167.987 84.3076 168.224C84.1344 168.461 84 168.75 83.9043 169.092C83.8086 169.434 83.7607 169.828 83.7607 170.274V170.562C83.7607 170.912 83.8086 171.243 83.9043 171.553C84.0046 171.858 84.1481 172.127 84.335 172.359C84.5264 172.592 84.7565 172.774 85.0254 172.906C85.2988 173.038 85.6087 173.104 85.9551 173.104C86.4017 173.104 86.7799 173.013 87.0898 172.831C87.3997 172.649 87.6709 172.405 87.9033 172.1L88.6689 172.708C88.5094 172.95 88.3066 173.18 88.0605 173.398C87.8145 173.617 87.5114 173.795 87.1514 173.932C86.7959 174.068 86.3743 174.137 85.8867 174.137ZM91.3457 166.604L92.9658 169.297L94.6064 166.604H96.0898L93.6699 170.254L96.165 174H94.7021L92.9932 171.225L91.2842 174H89.8145L92.3027 170.254L89.8896 166.604H91.3457ZM98.9512 168.025V176.844H97.6797V166.604H98.8418L98.9512 168.025ZM103.935 170.24V170.384C103.935 170.922 103.871 171.421 103.743 171.881C103.616 172.337 103.429 172.733 103.183 173.07C102.941 173.408 102.643 173.67 102.287 173.856C101.932 174.043 101.524 174.137 101.063 174.137C100.594 174.137 100.179 174.059 99.8193 173.904C99.4593 173.749 99.154 173.524 98.9033 173.228C98.6527 172.931 98.4521 172.576 98.3018 172.161C98.1559 171.746 98.0557 171.279 98.001 170.76V169.994C98.0557 169.447 98.1582 168.957 98.3086 168.524C98.459 168.091 98.6572 167.722 98.9033 167.417C99.154 167.107 99.457 166.872 99.8125 166.713C100.168 166.549 100.578 166.467 101.043 166.467C101.508 166.467 101.92 166.558 102.28 166.74C102.64 166.918 102.943 167.173 103.189 167.506C103.436 167.839 103.62 168.237 103.743 168.702C103.871 169.162 103.935 169.675 103.935 170.24ZM102.663 170.384V170.24C102.663 169.871 102.624 169.525 102.547 169.201C102.469 168.873 102.349 168.586 102.185 168.34C102.025 168.089 101.82 167.893 101.569 167.752C101.319 167.606 101.02 167.533 100.674 167.533C100.355 167.533 100.077 167.588 99.8398 167.697C99.6074 167.807 99.4092 167.955 99.2451 168.142C99.0811 168.324 98.9466 168.534 98.8418 168.771C98.7415 169.003 98.6663 169.244 98.6162 169.495V171.266C98.7074 171.585 98.835 171.885 98.999 172.168C99.1631 172.446 99.3818 172.672 99.6553 172.845C99.9287 173.013 100.273 173.098 100.688 173.098C101.029 173.098 101.323 173.027 101.569 172.886C101.82 172.74 102.025 172.542 102.185 172.291C102.349 172.04 102.469 171.753 102.547 171.43C102.624 171.102 102.663 170.753 102.663 170.384ZM108.867 174.137C108.352 174.137 107.885 174.05 107.466 173.877C107.051 173.699 106.693 173.451 106.393 173.132C106.096 172.813 105.868 172.435 105.709 171.997C105.549 171.56 105.47 171.081 105.47 170.562V170.274C105.47 169.673 105.559 169.137 105.736 168.668C105.914 168.194 106.156 167.793 106.461 167.465C106.766 167.137 107.113 166.888 107.5 166.72C107.887 166.551 108.288 166.467 108.703 166.467C109.232 166.467 109.688 166.558 110.07 166.74C110.458 166.923 110.774 167.178 111.021 167.506C111.267 167.829 111.449 168.212 111.567 168.654C111.686 169.092 111.745 169.57 111.745 170.09V170.657H106.222V169.625H110.48V169.529C110.462 169.201 110.394 168.882 110.275 168.572C110.161 168.262 109.979 168.007 109.729 167.807C109.478 167.606 109.136 167.506 108.703 167.506C108.416 167.506 108.152 167.567 107.91 167.69C107.669 167.809 107.461 167.987 107.288 168.224C107.115 168.461 106.98 168.75 106.885 169.092C106.789 169.434 106.741 169.828 106.741 170.274V170.562C106.741 170.912 106.789 171.243 106.885 171.553C106.985 171.858 107.129 172.127 107.315 172.359C107.507 172.592 107.737 172.774 108.006 172.906C108.279 173.038 108.589 173.104 108.936 173.104C109.382 173.104 109.76 173.013 110.07 172.831C110.38 172.649 110.651 172.405 110.884 172.1L111.649 172.708C111.49 172.95 111.287 173.18 111.041 173.398C110.795 173.617 110.492 173.795 110.132 173.932C109.776 174.068 109.355 174.137 108.867 174.137ZM114.736 168.183V174H113.472V166.604H114.668L114.736 168.183ZM114.436 170.021L113.909 170.001C113.914 169.495 113.989 169.028 114.135 168.6C114.281 168.167 114.486 167.791 114.75 167.472C115.014 167.153 115.329 166.907 115.693 166.733C116.062 166.556 116.47 166.467 116.917 166.467C117.282 166.467 117.61 166.517 117.901 166.617C118.193 166.713 118.441 166.868 118.646 167.082C118.856 167.296 119.016 167.574 119.125 167.916C119.234 168.253 119.289 168.666 119.289 169.153V174H118.018V169.14C118.018 168.752 117.961 168.442 117.847 168.21C117.733 167.973 117.566 167.802 117.348 167.697C117.129 167.588 116.86 167.533 116.541 167.533C116.227 167.533 115.939 167.599 115.68 167.731C115.424 167.864 115.203 168.046 115.017 168.278C114.834 168.511 114.691 168.777 114.586 169.078C114.486 169.374 114.436 169.689 114.436 170.021ZM125.767 172.038C125.767 171.856 125.726 171.687 125.644 171.532C125.566 171.373 125.404 171.229 125.158 171.102C124.917 170.969 124.552 170.855 124.064 170.76C123.654 170.673 123.283 170.571 122.95 170.452C122.622 170.334 122.342 170.19 122.109 170.021C121.882 169.853 121.706 169.655 121.583 169.427C121.46 169.199 121.398 168.932 121.398 168.627C121.398 168.335 121.462 168.06 121.59 167.8C121.722 167.54 121.907 167.31 122.144 167.109C122.385 166.909 122.674 166.752 123.012 166.638C123.349 166.524 123.725 166.467 124.14 166.467C124.732 166.467 125.238 166.572 125.657 166.781C126.076 166.991 126.398 167.271 126.621 167.622C126.844 167.968 126.956 168.354 126.956 168.777H125.691C125.691 168.572 125.63 168.374 125.507 168.183C125.388 167.987 125.213 167.825 124.98 167.697C124.753 167.57 124.472 167.506 124.14 167.506C123.789 167.506 123.504 167.561 123.285 167.67C123.071 167.775 122.914 167.909 122.813 168.073C122.718 168.237 122.67 168.41 122.67 168.593C122.67 168.729 122.693 168.853 122.738 168.962C122.788 169.067 122.875 169.165 122.998 169.256C123.121 169.342 123.294 169.424 123.518 169.502C123.741 169.579 124.026 169.657 124.372 169.734C124.978 169.871 125.477 170.035 125.869 170.227C126.261 170.418 126.553 170.653 126.744 170.931C126.936 171.209 127.031 171.546 127.031 171.942C127.031 172.266 126.963 172.562 126.826 172.831C126.694 173.1 126.5 173.332 126.245 173.528C125.994 173.72 125.694 173.87 125.343 173.979C124.996 174.084 124.607 174.137 124.174 174.137C123.522 174.137 122.971 174.021 122.52 173.788C122.068 173.556 121.727 173.255 121.494 172.886C121.262 172.517 121.146 172.127 121.146 171.717H122.417C122.435 172.063 122.535 172.339 122.718 172.544C122.9 172.744 123.123 172.888 123.388 172.975C123.652 173.057 123.914 173.098 124.174 173.098C124.52 173.098 124.81 173.052 125.042 172.961C125.279 172.87 125.459 172.744 125.582 172.585C125.705 172.425 125.767 172.243 125.767 172.038ZM132.012 174.137C131.497 174.137 131.03 174.05 130.61 173.877C130.196 173.699 129.838 173.451 129.537 173.132C129.241 172.813 129.013 172.435 128.854 171.997C128.694 171.56 128.614 171.081 128.614 170.562V170.274C128.614 169.673 128.703 169.137 128.881 168.668C129.059 168.194 129.3 167.793 129.605 167.465C129.911 167.137 130.257 166.888 130.645 166.72C131.032 166.551 131.433 166.467 131.848 166.467C132.376 166.467 132.832 166.558 133.215 166.74C133.602 166.923 133.919 167.178 134.165 167.506C134.411 167.829 134.593 168.212 134.712 168.654C134.83 169.092 134.89 169.57 134.89 170.09V170.657H129.366V169.625H133.625V169.529C133.607 169.201 133.538 168.882 133.42 168.572C133.306 168.262 133.124 168.007 132.873 167.807C132.622 167.606 132.281 167.506 131.848 167.506C131.561 167.506 131.296 167.567 131.055 167.69C130.813 167.809 130.606 167.987 130.433 168.224C130.259 168.461 130.125 168.75 130.029 169.092C129.934 169.434 129.886 169.828 129.886 170.274V170.562C129.886 170.912 129.934 171.243 130.029 171.553C130.13 171.858 130.273 172.127 130.46 172.359C130.651 172.592 130.882 172.774 131.15 172.906C131.424 173.038 131.734 173.104 132.08 173.104C132.527 173.104 132.905 173.013 133.215 172.831C133.525 172.649 133.796 172.405 134.028 172.1L134.794 172.708C134.634 172.95 134.432 173.18 134.186 173.398C133.939 173.617 133.636 173.795 133.276 173.932C132.921 174.068 132.499 174.137 132.012 174.137ZM143.436 166.604V167.574H139.437V166.604H143.436ZM140.79 164.806H142.055V172.168C142.055 172.419 142.093 172.608 142.171 172.735C142.248 172.863 142.349 172.947 142.472 172.988C142.595 173.029 142.727 173.05 142.868 173.05C142.973 173.05 143.082 173.041 143.196 173.022C143.315 173 143.404 172.981 143.463 172.968L143.47 174C143.369 174.032 143.237 174.062 143.073 174.089C142.914 174.121 142.72 174.137 142.492 174.137C142.182 174.137 141.897 174.075 141.638 173.952C141.378 173.829 141.171 173.624 141.016 173.337C140.865 173.045 140.79 172.653 140.79 172.161V164.806ZM146.434 167.766V174H145.169V166.604H146.399L146.434 167.766ZM148.744 166.562L148.737 167.738C148.632 167.715 148.532 167.702 148.437 167.697C148.345 167.688 148.241 167.684 148.122 167.684C147.83 167.684 147.573 167.729 147.35 167.82C147.126 167.911 146.937 168.039 146.782 168.203C146.627 168.367 146.504 168.563 146.413 168.791C146.326 169.014 146.27 169.26 146.242 169.529L145.887 169.734C145.887 169.288 145.93 168.868 146.017 168.477C146.108 168.085 146.247 167.738 146.434 167.438C146.62 167.132 146.857 166.895 147.145 166.727C147.436 166.553 147.783 166.467 148.184 166.467C148.275 166.467 148.38 166.478 148.498 166.501C148.617 166.519 148.699 166.54 148.744 166.562ZM154.251 172.735V168.928C154.251 168.636 154.192 168.383 154.073 168.169C153.959 167.95 153.786 167.782 153.554 167.663C153.321 167.545 153.034 167.485 152.692 167.485C152.373 167.485 152.093 167.54 151.852 167.649C151.615 167.759 151.428 167.902 151.291 168.08C151.159 168.258 151.093 168.449 151.093 168.654H149.828C149.828 168.39 149.896 168.128 150.033 167.868C150.17 167.608 150.366 167.374 150.621 167.164C150.881 166.95 151.191 166.781 151.551 166.658C151.915 166.531 152.321 166.467 152.768 166.467C153.305 166.467 153.779 166.558 154.189 166.74C154.604 166.923 154.928 167.198 155.16 167.567C155.397 167.932 155.516 168.39 155.516 168.941V172.387C155.516 172.633 155.536 172.895 155.577 173.173C155.623 173.451 155.689 173.69 155.775 173.891V174H154.456C154.392 173.854 154.342 173.66 154.306 173.419C154.269 173.173 154.251 172.945 154.251 172.735ZM154.47 169.516L154.483 170.404H153.205C152.845 170.404 152.524 170.434 152.241 170.493C151.959 170.548 151.722 170.632 151.53 170.746C151.339 170.86 151.193 171.004 151.093 171.177C150.993 171.345 150.942 171.544 150.942 171.771C150.942 172.004 150.995 172.216 151.1 172.407C151.204 172.599 151.362 172.751 151.571 172.865C151.785 172.975 152.048 173.029 152.357 173.029C152.745 173.029 153.087 172.947 153.383 172.783C153.679 172.619 153.914 172.419 154.087 172.182C154.265 171.945 154.36 171.715 154.374 171.491L154.914 172.1C154.882 172.291 154.796 172.503 154.654 172.735C154.513 172.968 154.324 173.191 154.087 173.405C153.854 173.615 153.576 173.79 153.253 173.932C152.934 174.068 152.574 174.137 152.173 174.137C151.672 174.137 151.232 174.039 150.854 173.843C150.48 173.647 150.188 173.385 149.979 173.057C149.773 172.724 149.671 172.353 149.671 171.942C149.671 171.546 149.748 171.197 149.903 170.896C150.058 170.591 150.282 170.338 150.573 170.138C150.865 169.933 151.216 169.778 151.626 169.673C152.036 169.568 152.494 169.516 153 169.516H154.47ZM160.715 173.098C161.016 173.098 161.294 173.036 161.549 172.913C161.804 172.79 162.014 172.621 162.178 172.407C162.342 172.188 162.435 171.94 162.458 171.662H163.661C163.638 172.1 163.49 172.507 163.217 172.886C162.948 173.259 162.595 173.562 162.157 173.795C161.72 174.023 161.239 174.137 160.715 174.137C160.159 174.137 159.674 174.039 159.259 173.843C158.849 173.647 158.507 173.378 158.233 173.036C157.965 172.694 157.762 172.302 157.625 171.86C157.493 171.414 157.427 170.942 157.427 170.445V170.158C157.427 169.661 157.493 169.192 157.625 168.75C157.762 168.303 157.965 167.909 158.233 167.567C158.507 167.226 158.849 166.957 159.259 166.761C159.674 166.565 160.159 166.467 160.715 166.467C161.294 166.467 161.799 166.585 162.232 166.822C162.665 167.055 163.005 167.374 163.251 167.779C163.502 168.18 163.638 168.636 163.661 169.146H162.458C162.435 168.841 162.349 168.565 162.198 168.319C162.052 168.073 161.852 167.877 161.597 167.731C161.346 167.581 161.052 167.506 160.715 167.506C160.327 167.506 160.002 167.583 159.737 167.738C159.478 167.889 159.27 168.094 159.115 168.354C158.965 168.609 158.855 168.894 158.787 169.208C158.723 169.518 158.691 169.835 158.691 170.158V170.445C158.691 170.769 158.723 171.088 158.787 171.402C158.851 171.717 158.958 172.002 159.108 172.257C159.263 172.512 159.471 172.717 159.73 172.872C159.995 173.022 160.323 173.098 160.715 173.098ZM166.604 163.5V174H165.333V163.5H166.604ZM171.123 166.604L167.896 170.056L166.092 171.929L165.989 170.582L167.281 169.037L169.578 166.604H171.123ZM169.968 174L167.329 170.473L167.985 169.345L171.458 174H169.968ZM174.053 166.604V174H172.781V166.604H174.053ZM172.686 164.642C172.686 164.437 172.747 164.263 172.87 164.122C172.998 163.981 173.185 163.91 173.431 163.91C173.672 163.91 173.857 163.981 173.984 164.122C174.117 164.263 174.183 164.437 174.183 164.642C174.183 164.838 174.117 165.006 173.984 165.147C173.857 165.284 173.672 165.353 173.431 165.353C173.185 165.353 172.998 165.284 172.87 165.147C172.747 165.006 172.686 164.838 172.686 164.642ZM177.598 168.183V174H176.333V166.604H177.529L177.598 168.183ZM177.297 170.021L176.771 170.001C176.775 169.495 176.85 169.028 176.996 168.6C177.142 168.167 177.347 167.791 177.611 167.472C177.876 167.153 178.19 166.907 178.555 166.733C178.924 166.556 179.332 166.467 179.778 166.467C180.143 166.467 180.471 166.517 180.763 166.617C181.054 166.713 181.303 166.868 181.508 167.082C181.717 167.296 181.877 167.574 181.986 167.916C182.096 168.253 182.15 168.666 182.15 169.153V174H180.879V169.14C180.879 168.752 180.822 168.442 180.708 168.21C180.594 167.973 180.428 167.802 180.209 167.697C179.99 167.588 179.721 167.533 179.402 167.533C179.088 167.533 178.801 167.599 178.541 167.731C178.286 167.864 178.065 168.046 177.878 168.278C177.696 168.511 177.552 168.777 177.447 169.078C177.347 169.374 177.297 169.689 177.297 170.021ZM189.113 166.604H190.262V173.843C190.262 174.494 190.13 175.05 189.865 175.511C189.601 175.971 189.232 176.32 188.758 176.557C188.288 176.798 187.746 176.919 187.131 176.919C186.876 176.919 186.575 176.878 186.229 176.796C185.887 176.718 185.549 176.584 185.217 176.393C184.889 176.206 184.613 175.953 184.39 175.634L185.053 174.882C185.363 175.256 185.686 175.515 186.023 175.661C186.365 175.807 186.702 175.88 187.035 175.88C187.436 175.88 187.783 175.805 188.074 175.654C188.366 175.504 188.591 175.281 188.751 174.984C188.915 174.693 188.997 174.333 188.997 173.904V168.23L189.113 166.604ZM184.021 170.384V170.24C184.021 169.675 184.087 169.162 184.219 168.702C184.355 168.237 184.549 167.839 184.8 167.506C185.055 167.173 185.363 166.918 185.723 166.74C186.083 166.558 186.488 166.467 186.939 166.467C187.404 166.467 187.81 166.549 188.156 166.713C188.507 166.872 188.803 167.107 189.045 167.417C189.291 167.722 189.485 168.091 189.626 168.524C189.767 168.957 189.865 169.447 189.92 169.994V170.623C189.87 171.165 189.772 171.653 189.626 172.086C189.485 172.519 189.291 172.888 189.045 173.193C188.803 173.499 188.507 173.733 188.156 173.897C187.805 174.057 187.395 174.137 186.926 174.137C186.484 174.137 186.083 174.043 185.723 173.856C185.367 173.67 185.062 173.408 184.807 173.07C184.551 172.733 184.355 172.337 184.219 171.881C184.087 171.421 184.021 170.922 184.021 170.384ZM185.285 170.24V170.384C185.285 170.753 185.322 171.099 185.395 171.423C185.472 171.746 185.588 172.031 185.743 172.277C185.903 172.523 186.105 172.717 186.352 172.858C186.598 172.995 186.892 173.063 187.233 173.063C187.653 173.063 187.999 172.975 188.272 172.797C188.546 172.619 188.762 172.384 188.922 172.093C189.086 171.801 189.214 171.484 189.305 171.143V169.495C189.255 169.244 189.177 169.003 189.072 168.771C188.972 168.534 188.84 168.324 188.676 168.142C188.516 167.955 188.318 167.807 188.081 167.697C187.844 167.588 187.566 167.533 187.247 167.533C186.901 167.533 186.602 167.606 186.352 167.752C186.105 167.893 185.903 168.089 185.743 168.34C185.588 168.586 185.472 168.873 185.395 169.201C185.322 169.525 185.285 169.871 185.285 170.24ZM200.517 172.735V168.928C200.517 168.636 200.457 168.383 200.339 168.169C200.225 167.95 200.052 167.782 199.819 167.663C199.587 167.545 199.3 167.485 198.958 167.485C198.639 167.485 198.359 167.54 198.117 167.649C197.88 167.759 197.693 167.902 197.557 168.08C197.424 168.258 197.358 168.449 197.358 168.654H196.094C196.094 168.39 196.162 168.128 196.299 167.868C196.436 167.608 196.632 167.374 196.887 167.164C197.146 166.95 197.456 166.781 197.816 166.658C198.181 166.531 198.587 166.467 199.033 166.467C199.571 166.467 200.045 166.558 200.455 166.74C200.87 166.923 201.193 167.198 201.426 167.567C201.663 167.932 201.781 168.39 201.781 168.941V172.387C201.781 172.633 201.802 172.895 201.843 173.173C201.888 173.451 201.954 173.69 202.041 173.891V174H200.722C200.658 173.854 200.608 173.66 200.571 173.419C200.535 173.173 200.517 172.945 200.517 172.735ZM200.735 169.516L200.749 170.404H199.471C199.111 170.404 198.789 170.434 198.507 170.493C198.224 170.548 197.987 170.632 197.796 170.746C197.604 170.86 197.459 171.004 197.358 171.177C197.258 171.345 197.208 171.544 197.208 171.771C197.208 172.004 197.26 172.216 197.365 172.407C197.47 172.599 197.627 172.751 197.837 172.865C198.051 172.975 198.313 173.029 198.623 173.029C199.01 173.029 199.352 172.947 199.648 172.783C199.945 172.619 200.179 172.419 200.353 172.182C200.53 171.945 200.626 171.715 200.64 171.491L201.18 172.1C201.148 172.291 201.061 172.503 200.92 172.735C200.779 172.968 200.59 173.191 200.353 173.405C200.12 173.615 199.842 173.79 199.519 173.932C199.2 174.068 198.84 174.137 198.438 174.137C197.937 174.137 197.497 174.039 197.119 173.843C196.745 173.647 196.454 173.385 196.244 173.057C196.039 172.724 195.937 172.353 195.937 171.942C195.937 171.546 196.014 171.197 196.169 170.896C196.324 170.591 196.547 170.338 196.839 170.138C197.131 169.933 197.481 169.778 197.892 169.673C198.302 169.568 198.76 169.516 199.266 169.516H200.735ZM205.285 168.025V176.844H204.014V166.604H205.176L205.285 168.025ZM210.269 170.24V170.384C210.269 170.922 210.205 171.421 210.077 171.881C209.95 172.337 209.763 172.733 209.517 173.07C209.275 173.408 208.977 173.67 208.621 173.856C208.266 174.043 207.858 174.137 207.397 174.137C206.928 174.137 206.513 174.059 206.153 173.904C205.793 173.749 205.488 173.524 205.237 173.228C204.987 172.931 204.786 172.576 204.636 172.161C204.49 171.746 204.39 171.279 204.335 170.76V169.994C204.39 169.447 204.492 168.957 204.643 168.524C204.793 168.091 204.991 167.722 205.237 167.417C205.488 167.107 205.791 166.872 206.146 166.713C206.502 166.549 206.912 166.467 207.377 166.467C207.842 166.467 208.254 166.558 208.614 166.74C208.974 166.918 209.277 167.173 209.523 167.506C209.77 167.839 209.954 168.237 210.077 168.702C210.205 169.162 210.269 169.675 210.269 170.24ZM208.997 170.384V170.24C208.997 169.871 208.958 169.525 208.881 169.201C208.803 168.873 208.683 168.586 208.519 168.34C208.359 168.089 208.154 167.893 207.903 167.752C207.653 167.606 207.354 167.533 207.008 167.533C206.689 167.533 206.411 167.588 206.174 167.697C205.941 167.807 205.743 167.955 205.579 168.142C205.415 168.324 205.281 168.534 205.176 168.771C205.076 169.003 205 169.244 204.95 169.495V171.266C205.041 171.585 205.169 171.885 205.333 172.168C205.497 172.446 205.716 172.672 205.989 172.845C206.263 173.013 206.607 173.098 207.021 173.098C207.363 173.098 207.657 173.027 207.903 172.886C208.154 172.74 208.359 172.542 208.519 172.291C208.683 172.04 208.803 171.753 208.881 171.43C208.958 171.102 208.997 170.753 208.997 170.384ZM213.396 168.025V176.844H212.125V166.604H213.287L213.396 168.025ZM218.38 170.24V170.384C218.38 170.922 218.316 171.421 218.188 171.881C218.061 172.337 217.874 172.733 217.628 173.07C217.386 173.408 217.088 173.67 216.732 173.856C216.377 174.043 215.969 174.137 215.509 174.137C215.039 174.137 214.625 174.059 214.265 173.904C213.905 173.749 213.599 173.524 213.349 173.228C213.098 172.931 212.897 172.576 212.747 172.161C212.601 171.746 212.501 171.279 212.446 170.76V169.994C212.501 169.447 212.604 168.957 212.754 168.524C212.904 168.091 213.103 167.722 213.349 167.417C213.599 167.107 213.902 166.872 214.258 166.713C214.613 166.549 215.023 166.467 215.488 166.467C215.953 166.467 216.366 166.558 216.726 166.74C217.086 166.918 217.389 167.173 217.635 167.506C217.881 167.839 218.065 168.237 218.188 168.702C218.316 169.162 218.38 169.675 218.38 170.24ZM217.108 170.384V170.24C217.108 169.871 217.07 169.525 216.992 169.201C216.915 168.873 216.794 168.586 216.63 168.34C216.47 168.089 216.265 167.893 216.015 167.752C215.764 167.606 215.465 167.533 215.119 167.533C214.8 167.533 214.522 167.588 214.285 167.697C214.053 167.807 213.854 167.955 213.69 168.142C213.526 168.324 213.392 168.534 213.287 168.771C213.187 169.003 213.112 169.244 213.062 169.495V171.266C213.153 171.585 213.28 171.885 213.444 172.168C213.608 172.446 213.827 172.672 214.101 172.845C214.374 173.013 214.718 173.098 215.133 173.098C215.475 173.098 215.769 173.027 216.015 172.886C216.265 172.74 216.47 172.542 216.63 172.291C216.794 172.04 216.915 171.753 216.992 171.43C217.07 171.102 217.108 170.753 217.108 170.384Z" fill="#191C20"/>
<defs>
<filter id="filter0_d_57920_30176" x="0" y="0" width="272" height="157" filterUnits="userSpaceOnUse" color-interpolation-filters="sRGB">
<feFlood flood-opacity="0" result="BackgroundImageFix"/>
<feColorMatrix in="SourceAlpha" type="matrix" values="0 0 0 0 0 0 0 0 0 0 0 0 0 0 0 0 0 0 127 0" result="hardAlpha"/>
<feOffset dx="2" dy="2"/>
<feGaussianBlur stdDeviation="5"/>
<feComposite in2="hardAlpha" operator="out"/>
<feColorMatrix type="matrix" values="0 0 0 0 0 0 0 0 0 0 0 0 0 0 0 0 0 0 0.25 0"/>
<feBlend mode="normal" in2="BackgroundImageFix" result="effect1_dropShadow_57920_30176"/>
<feBlend mode="normal" in="SourceGraphic" in2="effect1_dropShadow_57920_30176" result="shape"/>
</filter>
<linearGradient id="paint0_linear_57920_30176" x1="96" y1="19.5" x2="213.5" y2="137" gradientUnits="userSpaceOnUse">
<stop stop-color="#3E3E3E"/>
<stop offset="1" stop-color="#0C0C0C"/>
</linearGradient>
</defs>
</svg>
